<?xml version="1.0" standalone="no"?>
<!DOCTYPE svg PUBLIC "-//W3C//DTD SVG 20010904//EN"
 "http://www.w3.org/TR/2001/REC-SVG-20010904/DTD/svg10.dtd">
<svg version="1.0" xmlns="http://www.w3.org/2000/svg"
 width="624.000000pt" height="624.000000pt" viewBox="0 0 624.000000 624.000000"
 preserveAspectRatio="xMidYMid meet">
<metadata>
Created by potrace 1.14, written by Peter Selinger 2001-2017
</metadata>
<g transform="translate(0.000000,624.000000) scale(0.100000,-0.100000)"
fill="#000000" stroke="none">
<path d="M3099 6136 c-2 -3 -16 -7 -29 -10 -14 -3 -34 -7 -45 -10 -27 -7 -144
-35 -175 -42 -14 -3 -68 -16 -121 -29 -53 -13 -107 -26 -120 -29 -13 -2 -64
-14 -114 -26 -49 -12 -101 -24 -115 -26 -14 -3 -33 -7 -42 -10 -16 -5 -40 -10
-87 -20 -14 -3 -28 -7 -31 -9 -4 -2 -20 -6 -37 -9 -16 -3 -85 -19 -154 -35
-68 -17 -135 -32 -149 -35 -14 -2 -56 -12 -95 -21 -38 -9 -77 -18 -85 -20 -8
-2 -35 -8 -60 -15 -25 -7 -56 -14 -70 -16 -14 -3 -33 -7 -42 -10 -9 -3 -25 -7
-35 -9 -10 -2 -48 -11 -85 -19 -38 -9 -98 -23 -136 -32 -37 -8 -74 -17 -82
-18 -8 -2 -33 -9 -55 -14 -22 -6 -51 -13 -65 -16 -14 -2 -74 -16 -135 -31 -60
-15 -121 -29 -135 -31 -14 -3 -41 -9 -60 -14 -19 -5 -46 -11 -60 -13 -14 -3
-45 -10 -70 -17 -25 -7 -56 -14 -69 -17 -14 -2 -28 -6 -31 -8 -4 -2 -21 -7
-39 -10 -17 -3 -60 -12 -94 -21 -34 -8 -75 -17 -91 -20 -75 -14 -71 -20 50
-58 66 -21 153 -49 194 -63 73 -24 139 -31 161 -18 5 4 65 20 132 36 67 16
131 31 142 34 11 3 33 8 49 11 16 2 32 7 36 9 3 2 17 6 31 9 13 2 56 12 94 21
39 9 78 18 88 21 10 2 27 6 37 9 10 3 27 7 37 9 10 2 59 14 108 26 50 12 97
23 105 25 8 2 74 18 145 35 126 31 144 35 183 44 11 2 68 16 128 31 60 15 119
29 132 31 13 3 69 16 125 30 96 24 112 27 162 38 11 2 97 23 190 46 203 50
203 50 235 56 14 3 33 7 42 10 9 3 25 6 35 8 10 2 54 13 98 25 98 25 94 25
320 -33 78 -20 150 -38 160 -41 11 -2 47 -11 80 -20 83 -23 468 -121 590 -151
55 -13 111 -29 125 -34 14 -5 42 -12 64 -15 21 -3 42 -8 47 -11 5 -3 17 -7 26
-9 26 -5 80 -19 238 -60 160 -42 480 -124 510 -131 11 -2 76 -19 145 -37 l126
-33 67 21 c37 12 67 21 67 20 0 -2 31 7 69 20 38 13 117 38 177 55 105 31 147
50 111 50 -10 0 -63 11 -120 25 -56 13 -115 27 -132 30 -16 3 -34 7 -40 9 -5
1 -28 7 -50 11 -22 5 -42 10 -45 10 -68 18 -220 53 -250 59 -14 2 -74 16 -135
31 -60 15 -119 28 -130 30 -23 5 -62 14 -190 44 -97 22 -296 69 -330 76 -58
13 -200 46 -275 65 -47 11 -94 22 -105 24 -21 3 -187 41 -245 56 -19 5 -55 13
-80 19 -55 12 -102 23 -115 27 -5 2 -23 6 -40 9 -16 3 -75 16 -130 30 -55 13
-111 26 -125 29 -30 6 -188 42 -245 56 -45 11 -60 12 -66 6z"/>
<path d="M3085 5539 c-16 -5 -39 -11 -50 -14 -11 -2 -29 -6 -40 -9 -11 -2
-129 -32 -263 -66 -133 -34 -250 -63 -260 -65 -9 -3 -35 -9 -57 -15 -22 -6
-49 -13 -60 -15 -11 -3 -29 -7 -40 -10 -11 -2 -108 -27 -215 -55 -107 -28
-206 -54 -220 -56 -14 -3 -48 -12 -76 -20 -28 -8 -60 -16 -70 -18 -11 -2 -57
-14 -104 -26 -47 -12 -92 -23 -100 -25 -8 -2 -42 -11 -75 -20 -33 -9 -68 -18
-79 -20 -35 -8 -28 -14 30 -30 33 -9 86 -25 119 -35 33 -10 92 -27 130 -39 39
-11 102 -30 140 -41 39 -12 84 -26 100 -30 17 -4 93 -27 170 -50 243 -72 409
-121 426 -125 9 -2 39 -11 65 -20 27 -9 58 -19 69 -21 11 -2 47 -12 80 -23 92
-29 415 -123 433 -126 10 -1 21 0 26 3 11 6 114 41 786 262 827 272 827 272
799 283 -19 8 -215 62 -329 92 -8 2 -17 4 -20 5 -3 1 -9 3 -15 4 -19 4 -70 18
-85 23 -8 3 -22 7 -31 9 -14 3 -38 9 -179 48 -102 27 -255 68 -270 71 -8 2
-114 31 -235 63 -180 49 -367 97 -455 117 -8 2 -28 -1 -45 -6z"/>
<path d="M6140 5336 c-36 -13 -69 -24 -75 -26 -13 -3 -11 -3 -135 -41 -102
-32 -117 -36 -142 -42 -7 -1 -26 -8 -43 -14 -24 -9 -133 -43 -155 -48 -3 0
-16 -4 -30 -7 l-25 -7 1 -1538 c1 -1657 3 -1593 -49 -1609 -12 -4 -51 -20 -87
-37 -104 -47 -161 -73 -225 -102 -33 -15 -102 -47 -154 -71 -51 -24 -95 -44
-96 -44 -2 0 -50 -22 -107 -49 -56 -27 -123 -58 -148 -69 -25 -11 -85 -39
-135 -62 -123 -58 -306 -142 -315 -145 -8 -3 -103 -47 -234 -109 -65 -31 -125
-56 -132 -56 -8 0 -14 -4 -14 -10 0 -5 -9 -10 -20 -10 -11 0 -20 -4 -20 -10 0
-5 -7 -10 -15 -10 -8 0 -23 -4 -33 -10 -22 -13 -293 -140 -298 -140 -2 0 -50
-22 -107 -50 l-104 -49 -2 -53 c-2 -29 -2 -60 -2 -68 1 -8 1 -35 1 -60 0 -25
0 -52 0 -60 0 -8 0 -35 -1 -60 -1 -25 -1 -51 0 -57 0 -7 1 -32 1 -55 0 -60 0
-93 3 -260 1 -80 5 -149 8 -153 4 -3 41 10 84 29 42 20 78 36 79 36 2 0 48 21
102 47 54 26 101 47 104 48 3 1 28 12 55 24 92 43 179 83 265 121 81 36 113
51 308 141 46 22 85 39 87 39 3 0 75 32 210 95 28 12 73 33 100 45 28 13 79
36 115 53 184 84 542 248 595 272 33 15 89 40 125 57 36 16 76 34 90 40 14 6
32 14 40 19 8 5 22 12 30 16 8 3 35 15 60 26 25 12 47 22 50 22 3 1 41 18 85
39 44 21 125 58 180 83 55 25 129 58 163 74 l64 29 -4 1828 c-1 1005 -5 1872
-8 1926 -3 55 -9 101 -15 102 -5 1 -39 -8 -75 -20z"/>
<path d="M0 3402 l0 -1907 52 -24 c29 -14 82 -38 118 -55 36 -16 67 -30 70
-31 3 0 32 -14 65 -29 70 -33 635 -289 840 -381 146 -65 215 -97 300 -135 28
-13 52 -24 55 -25 3 0 36 -16 74 -33 38 -18 71 -32 73 -32 3 0 39 -16 81 -36
42 -19 86 -39 97 -44 98 -43 127 -55 175 -77 30 -14 111 -50 180 -80 69 -31
150 -67 180 -80 30 -14 111 -50 180 -80 69 -31 150 -67 180 -80 66 -30 219
-98 276 -123 l40 -18 1 138 c0 76 2 141 4 146 2 5 4 130 4 277 l0 268 -175 75
c-96 41 -186 80 -200 86 -14 6 -27 12 -30 13 -3 1 -16 6 -30 12 -14 6 -279
120 -590 253 -311 133 -578 247 -595 255 -16 7 -91 39 -165 70 -74 31 -148 63
-165 70 -16 8 -93 40 -170 73 -77 33 -160 68 -185 79 -25 11 -70 31 -100 43
-104 45 -95 -8 -97 548 -1 268 -2 582 -3 697 -1 116 0 215 1 220 1 6 0 15 -1
20 -1 6 -4 285 -6 620 -3 336 -6 710 -7 832 l-2 223 -25 9 c-14 5 -43 15 -65
21 -22 6 -47 14 -55 17 -8 4 -18 7 -22 8 -5 2 -9 3 -10 5 -2 1 -10 3 -18 5 -9
1 -81 23 -162 49 -80 25 -151 46 -157 46 -8 0 -11 -513 -11 -1908z"/>
<path d="M4915 4949 c-27 -9 -176 -61 -330 -113 -154 -53 -287 -99 -295 -101
-8 -2 -89 -29 -180 -60 -91 -31 -171 -58 -178 -60 -7 -3 -13 -4 -15 -4 -2 1
-18 -5 -102 -37 -11 -4 -24 -8 -30 -10 -5 -1 -30 -10 -55 -19 -25 -9 -65 -23
-90 -30 -36 -10 -165 -54 -270 -91 -8 -3 -17 -6 -20 -6 -3 -1 -27 -9 -55 -18
l-50 -17 -2 -69 c-2 -74 -3 -199 -2 -224 0 -8 0 -42 -1 -75 -1 -33 -1 -64 0
-70 1 -5 2 -12 1 -15 -6 -18 -5 -2323 1 -2326 7 -4 129 45 253 101 28 13 93
42 145 65 142 62 182 80 215 95 17 7 57 25 90 40 33 15 74 33 90 40 17 7 127
56 246 108 120 53 237 104 260 115 24 11 132 59 239 106 107 48 197 91 200 96
3 5 5 519 3 1142 -3 1179 -5 1444 -13 1450 -3 2 -27 -4 -55 -13z"/>
<path d="M1110 4778 c-2 -95 -3 -672 -4 -1282 -1 -976 1 -1110 14 -1117 21
-11 63 -28 245 -104 88 -36 174 -72 190 -79 17 -8 61 -26 99 -41 38 -15 77
-31 85 -35 25 -12 59 -26 156 -66 94 -38 111 -45 211 -88 34 -14 64 -26 67
-26 4 0 30 -11 59 -24 46 -21 78 -34 98 -41 3 -1 16 -7 30 -12 14 -6 77 -32
140 -58 63 -26 130 -53 147 -61 18 -8 48 -20 65 -28 18 -8 58 -24 88 -36 57
-22 82 -33 162 -69 26 -11 54 -21 60 -21 10 0 14 41 15 172 1 95 2 187 3 203
1 17 1 58 0 93 -1 34 2 67 5 72 3 6 2 10 -4 10 -6 0 -8 7 -5 15 9 23 10 215 1
215 -5 0 -5 5 -2 11 10 15 11 129 2 129 -5 0 -5 5 -1 11 4 6 7 425 8 930 2
914 2 918 -19 928 -17 8 -142 46 -185 57 -8 2 -87 26 -175 53 -88 28 -161 51
-162 51 -8 2 -33 9 -73 21 -25 8 -47 14 -50 14 -3 1 -45 13 -95 29 -84 26
-154 47 -385 116 -52 16 -135 41 -185 56 -49 16 -92 29 -95 29 -3 1 -32 9 -65
19 -33 10 -64 19 -70 20 -5 2 -44 13 -85 25 -78 23 -93 28 -199 61 -35 11 -70
20 -77 20 -9 0 -13 -42 -14 -172z"/>
</g>
</svg>
