<svg width="156" height="151" viewBox="0 0 156 151" fill="none" xmlns="http://www.w3.org/2000/svg">
<path fill-rule="evenodd" clip-rule="evenodd" d="M75.91 150.2L75.56 150.05C73.92 149.31 63.77 144.81 53.01 140.04C36.951 132.93 15.847 123.42 1.451 116.8L0 116.13V20.6L1.545 21.08C3.816 21.78 7.66 22.98 10.086 23.75L13.118 24.7L13.329 47.1C13.452 60.21 13.553 77.78 13.553 86.15V101.37C13.553 102.17 14.03 102.9 14.766 103.21L76.15 129.48L76.04 140.56C76 144.43 75.95 147.91 75.91 150.2ZM155.73 19.44C155.81 24.43 156 39 156 67.05V116L154.9 116.5C153.65 117.06 146.77 120.22 139.61 123.51C132.47 126.79 117.58 133.58 106.54 138.6C95.49 143.62 84.66 148.54 82.47 149.54C82.01 149.75 81.54 149.96 81.09 150.16C81.05 147.8 81.01 144.2 81.01 140.59V129.25L81.84 128.84C84.41 127.58 135.36 104.08 136.34 103.71L137.11 103.42C137.88 103.12 138.4 102.38 138.4 101.55V24.77C139.56 24.43 143.95 23.08 148.64 21.62C151.42 20.75 153.98 19.96 155.73 19.44ZM27.843 29.62C31.392 30.64 66.57 41.21 73.87 43.46L76.16 44.16L76.11 59.02C76.08 68.01 76.04 84.75 76.03 96.22C76.02 105.52 75.92 111.19 75.86 113.94C71.64 112.17 62.48 108.37 52.07 104.08C40.653 99.38 30.878 95.3 27.652 93.9C27.583 89.87 27.559 76.54 27.6 60.91C27.648 42.5 27.697 33.82 27.83 29.95L27.843 29.62ZM124.36 29.29C124.45 33.26 124.61 43.16 124.61 61.12V94.36L122.33 95.39C119.08 96.85 100.99 104.86 85.17 111.82C83.64 112.5 82.1 113.16 80.88 113.67C80.88 107.99 80.9 94.8 80.93 79.55L81.02 43.98L96.45 38.77C105.69 35.65 116.21 32.07 119.84 30.81C121.42 30.26 123.09 29.71 124.36 29.29ZM78.05 14.82C78.69 14.97 81.74 15.67 84.44 16.39C103.58 21.52 114.11 24.34 119.59 25.82C117.35 26.59 114.27 27.64 110.19 28.98L86.15 36.91L78.47 39.44L68.1 36.38C62.07 34.6 50.68 31.23 42.79 28.89C39.36 27.88 36.102 26.92 33.448 26.15C38.248 24.89 46.15 22.84 58.24 19.78C68.27 17.24 76.8 15.09 78.05 14.82ZM78.04 0C80.67 0.59 91.34 3.07 113.84 8.29C128.32 11.66 143.6 15.17 147.78 16.1L149.27 16.44C147.45 17.02 145.19 17.72 142.51 18.54L136.41 20.39L122.49 16.82C114.54 14.79 101.41 11.42 93.32 9.34L78.62 5.57C78.3024 5.4867 77.9692 5.48327 77.65 5.56L50.68 12C35.825 15.55 21.775 18.93 19.453 19.51L15.78 20.44L7.445 17.84C6.656 17.59 5.908 17.35 5.211 17.12C12.552 15.37 27.471 11.89 53.81 5.75C65.78 2.96 75.85 0.58 77.8 0.07C77.88 0.05 77.97 0.02 78.04 0Z" fill="black"/>
</svg>
